<svg dominant-baseline="central" height="720" style="font-family:DejaVu Sans Mono,monospace;font-size: 20px;fill: white" viewBox="0 0 1272 720" width="1272" xmlns="http://www.w3.org/2000/svg">
<rect fill="black" height="720" width="1272"/>
<text style="fill:Reset;" x="300" y="340">
█
</text>
<text style="fill:Reset;" x="300" y="360">
█
</text>
<text style="fill:Reset;" x="300" y="380">
█
</text>
<text style="fill:Reset;" x="312" y="340">
█
</text>
<text style="fill:Reset;" x="312" y="360">
█
</text>
<text style="fill:Reset;" x="312" y="380">
█
</text>
<text style="fill:Reset;" x="312" y="400">
█
</text>
<text style="fill:Reset;" x="324" y="400">
█
</text>
<text style="fill:Reset;" x="324" y="420">
█
</text>
<text style="fill:Reset;" x="336" y="400">
█
</text>
<text style="fill:Reset;" x="336" y="420">
█
</text>
<text style="fill:Reset;" x="348" y="340">
█
</text>
<text style="fill:Reset;" x="348" y="360">
█
</text>
<text style="fill:Reset;" x="348" y="380">
█
</text>
<text style="fill:Reset;" x="348" y="400">
█
</text>
<text style="fill:Reset;" x="360" y="340">
█
</text>
<text style="fill:Reset;" x="360" y="360">
█
</text>
<text style="fill:Reset;" x="360" y="380">
█
</text>
<text style="fill:Reset;" x="396" y="360">
█
</text>
<text style="fill:Reset;" x="396" y="380">
█
</text>
<text style="fill:Reset;" x="408" y="340">
█
</text>
<text style="fill:Reset;" x="408" y="360">
█
</text>
<text style="fill:Reset;" x="408" y="380">
█
</text>
<text style="fill:Reset;" x="420" y="320">
█
</text>
<text style="fill:Reset;" x="420" y="340">
█
</text>
<text style="fill:Reset;" x="420" y="380">
█
</text>
<text style="fill:Reset;" x="432" y="300">
█
</text>
<text style="fill:Reset;" x="432" y="320">
█
</text>
<text style="fill:Reset;" x="432" y="380">
█
</text>
<text style="fill:Reset;" x="432" y="420">
█
</text>
<text style="fill:Reset;" x="444" y="300">
█
</text>
<text style="fill:Reset;" x="444" y="320">
█
</text>
<text style="fill:Reset;" x="444" y="340">
█
</text>
<text style="fill:Reset;" x="444" y="360">
█
</text>
<text style="fill:Reset;" x="444" y="380">
█
</text>
<text style="fill:Reset;" x="444" y="400">
█
</text>
<text style="fill:Reset;" x="444" y="420">
█
</text>
<text style="fill:Reset;" x="456" y="300">
█
</text>
<text style="fill:Reset;" x="456" y="320">
█
</text>
<text style="fill:Reset;" x="456" y="340">
█
</text>
<text style="fill:Reset;" x="456" y="360">
█
</text>
<text style="fill:Reset;" x="456" y="380">
█
</text>
<text style="fill:Reset;" x="456" y="400">
█
</text>
<text style="fill:Reset;" x="456" y="420">
█
</text>
<text style="fill:Reset;" x="468" y="380">
█
</text>
<text style="fill:Reset;" x="468" y="420">
█
</text>
<text style="fill:Reset;" x="504" y="300">
█
</text>
<text style="fill:Reset;" x="504" y="420">
█
</text>
<text style="fill:Reset;" x="516" y="300">
█
</text>
<text style="fill:Reset;" x="516" y="320">
█
</text>
<text style="fill:Reset;" x="516" y="340">
█
</text>
<text style="fill:Reset;" x="516" y="360">
█
</text>
<text style="fill:Reset;" x="516" y="380">
█
</text>
<text style="fill:Reset;" x="516" y="400">
█
</text>
<text style="fill:Reset;" x="516" y="420">
█
</text>
<text style="fill:Reset;" x="528" y="300">
█
</text>
<text style="fill:Reset;" x="528" y="320">
█
</text>
<text style="fill:Reset;" x="528" y="340">
█
</text>
<text style="fill:Reset;" x="528" y="360">
█
</text>
<text style="fill:Reset;" x="528" y="380">
█
</text>
<text style="fill:Reset;" x="528" y="400">
█
</text>
<text style="fill:Reset;" x="528" y="420">
█
</text>
<text style="fill:Reset;" x="540" y="420">
█
</text>
<text style="fill:Reset;" x="588" y="360">
█
</text>
<text style="fill:Reset;" x="600" y="360">
█
</text>
<text style="fill:Reset;" x="612" y="360">
█
</text>
<text style="fill:Reset;" x="624" y="360">
█
</text>
<text style="fill:Reset;" x="636" y="360">
█
</text>
<text style="fill:Reset;" x="648" y="360">
█
</text>
<text style="fill:Reset;" x="696" y="340">
█
</text>
<text style="fill:Reset;" x="708" y="320">
█
</text>
<text style="fill:Reset;" x="708" y="340">
█
</text>
<text style="fill:Reset;" x="708" y="360">
█
</text>
<text style="fill:Reset;" x="708" y="380">
█
</text>
<text style="fill:Reset;" x="708" y="400">
█
</text>
<text style="fill:Reset;" x="720" y="300">
█
</text>
<text style="fill:Reset;" x="720" y="320">
█
</text>
<text style="fill:Reset;" x="720" y="340">
█
</text>
<text style="fill:Reset;" x="720" y="360">
█
</text>
<text style="fill:Reset;" x="720" y="380">
█
</text>
<text style="fill:Reset;" x="720" y="400">
█
</text>
<text style="fill:Reset;" x="720" y="420">
█
</text>
<text style="fill:Reset;" x="732" y="340">
█
</text>
<text style="fill:Reset;" x="732" y="420">
█
</text>
<text style="fill:Reset;" x="744" y="340">
█
</text>
<text style="fill:Reset;" x="744" y="400">
█
</text>
<text style="fill:Reset;" x="780" y="340">
█
</text>
<text style="fill:Reset;" x="780" y="360">
█
</text>
<text style="fill:Reset;" x="780" y="380">
█
</text>
<text style="fill:Reset;" x="780" y="400">
█
</text>
<text style="fill:Reset;" x="792" y="340">
█
</text>
<text style="fill:Reset;" x="792" y="360">
█
</text>
<text style="fill:Reset;" x="792" y="380">
█
</text>
<text style="fill:Reset;" x="792" y="400">
█
</text>
<text style="fill:Reset;" x="792" y="420">
█
</text>
<text style="fill:Reset;" x="804" y="420">
█
</text>
<text style="fill:Reset;" x="816" y="420">
█
</text>
<text style="fill:Reset;" x="828" y="340">
█
</text>
<text style="fill:Reset;" x="828" y="360">
█
</text>
<text style="fill:Reset;" x="828" y="380">
█
</text>
<text style="fill:Reset;" x="828" y="400">
█
</text>
<text style="fill:Reset;" x="840" y="340">
█
</text>
<text style="fill:Reset;" x="840" y="360">
█
</text>
<text style="fill:Reset;" x="840" y="380">
█
</text>
<text style="fill:Reset;" x="840" y="400">
█
</text>
<text style="fill:Reset;" x="840" y="420">
█
</text>
<text style="fill:Reset;" x="852" y="420">
█
</text>
<text style="fill:Reset;" x="888" y="340">
█
</text>
<text style="fill:Reset;" x="888" y="420">
█
</text>
<text style="fill:Reset;" x="900" y="300">
█
</text>
<text style="fill:Reset;" x="900" y="340">
█
</text>
<text style="fill:Reset;" x="900" y="360">
█
</text>
<text style="fill:Reset;" x="900" y="380">
█
</text>
<text style="fill:Reset;" x="900" y="400">
█
</text>
<text style="fill:Reset;" x="900" y="420">
█
</text>
<text style="fill:Reset;" x="912" y="300">
█
</text>
<text style="fill:Reset;" x="912" y="340">
█
</text>
<text style="fill:Reset;" x="912" y="360">
█
</text>
<text style="fill:Reset;" x="912" y="380">
█
</text>
<text style="fill:Reset;" x="912" y="400">
█
</text>
<text style="fill:Reset;" x="912" y="420">
█
</text>
<text style="fill:Reset;" x="924" y="420">
█
</text>
</svg>